<svg width="320" height="320" viewBox="0 0 320 320" fill="none" xmlns="http://www.w3.org/2000/svg">
<rect width="320" height="320" fill="#FAFAFA"/>
<path d="M191.002 172H226.5V244.5H275V280H191V172H191.002Z" fill="black"/>
<path d="M45 172H81L105.5 209.811L130 172H166V280H132V226.271L106 264.5H105L79 226.271V280H45V172Z" fill="#08589C"/>
<path d="M206.659 74.6853L175 74.5V39H275V74.5H243V147H207V74.5L206.659 74.6853Z" fill="#1FBCFD"/>
<path d="M45 39H81V74.5H114V39H150V93V147H114V110.5H81V147H45V39Z" fill="#44D1FD"/>
</svg>
