<svg width="320" height="320" viewBox="0 0 320 320" fill="none" xmlns="http://www.w3.org/2000/svg">
<rect width="320" height="320" fill="#FAFAFA"/>
<path d="M188.002 169H223.5V241.5H272V277H188V169H188.002Z" fill="black"/>
<path d="M48 169H84L108.5 206.811L133 169H169V277H135V223.271L109 261.5H108L82 223.271V277H48V169Z" fill="#08589C"/>
<path d="M203.659 77.6853L172 77.5V42H272V77.5H240V150H204V77.5L203.659 77.6853Z" fill="#1FBCFD"/>
<path d="M48 42H84V77.5H117V42H153V96V150H117V113.5H84V150H48V42Z" fill="#44D1FD"/>
</svg>
